<mxfile host="app.diagrams.net" agent="Mozilla/5.0 (Windows NT 10.0; Win64; x64) AppleWebKit/537.36 (KHTML, like Gecko) Chrome/136.0.0.0 Safari/537.36" version="27.0.6">
  <diagram name="Page-1" id="kdzqDx9mwxb_QLQyKDyB">
    <mxGraphModel dx="8647" dy="5153" grid="1" gridSize="10" guides="1" tooltips="1" connect="1" arrows="1" fold="1" page="1" pageScale="1" pageWidth="850" pageHeight="1100" math="0" shadow="0">
      <root>
        <mxCell id="0" />
        <mxCell id="1" parent="0" />
        <mxCell id="bgGJNaxnmsAul3DNPaWL-28" style="edgeStyle=orthogonalEdgeStyle;rounded=0;orthogonalLoop=1;jettySize=auto;html=1;exitX=1;exitY=0.75;exitDx=0;exitDy=0;entryX=0;entryY=0.5;entryDx=0;entryDy=0;" parent="1" source="J95X7SRp1siAI0rGyf6k-1" target="bgGJNaxnmsAul3DNPaWL-25" edge="1">
          <mxGeometry relative="1" as="geometry" />
        </mxCell>
        <mxCell id="J95X7SRp1siAI0rGyf6k-1" value="&lt;font style=&quot;font-size: 28px;&quot;&gt;CLUSTERED USER STORIES&lt;/font&gt;" style="swimlane;whiteSpace=wrap;html=1;startSize=50;strokeWidth=2;" parent="1" vertex="1">
          <mxGeometry x="150" y="170" width="680" height="840" as="geometry" />
        </mxCell>
        <mxCell id="J95X7SRp1siAI0rGyf6k-21" value="&lt;font style=&quot;font-size: 20px;&quot;&gt;CLUSTERED NON-FUNCTIONAL USER STORIES&lt;/font&gt;" style="swimlane;whiteSpace=wrap;html=1;startSize=40;" parent="J95X7SRp1siAI0rGyf6k-1" vertex="1">
          <mxGeometry x="100" y="90" width="480" height="300" as="geometry" />
        </mxCell>
        <mxCell id="J95X7SRp1siAI0rGyf6k-22" value="&lt;font style=&quot;font-size: 20px;&quot;&gt;CLUSTERED FUNCTIONAL USER STORIES&lt;/font&gt;" style="swimlane;whiteSpace=wrap;html=1;startSize=50;" parent="J95X7SRp1siAI0rGyf6k-1" vertex="1">
          <mxGeometry x="100" y="470" width="480" height="320" as="geometry" />
        </mxCell>
        <mxCell id="J95X7SRp1siAI0rGyf6k-26" value="&lt;font style=&quot;font-size: 20px;&quot;&gt;P-001&#39;s NFUSs&lt;/font&gt;" style="rounded=0;whiteSpace=wrap;html=1;" parent="J95X7SRp1siAI0rGyf6k-1" vertex="1">
          <mxGeometry x="111" y="140" width="150" height="40" as="geometry" />
        </mxCell>
        <mxCell id="J95X7SRp1siAI0rGyf6k-27" value="&lt;font style=&quot;font-size: 20px;&quot;&gt;P-004s NFUSs&lt;/font&gt;" style="rounded=0;whiteSpace=wrap;html=1;" parent="J95X7SRp1siAI0rGyf6k-1" vertex="1">
          <mxGeometry x="421" y="190" width="149" height="40.18" as="geometry" />
        </mxCell>
        <mxCell id="J95X7SRp1siAI0rGyf6k-28" value="&lt;font style=&quot;font-size: 20px;&quot;&gt;P-006s NFUSs&lt;/font&gt;" style="rounded=0;whiteSpace=wrap;html=1;" parent="J95X7SRp1siAI0rGyf6k-1" vertex="1">
          <mxGeometry x="421" y="240.08999999999997" width="150" height="39.91" as="geometry" />
        </mxCell>
        <mxCell id="J95X7SRp1siAI0rGyf6k-29" value="&lt;font style=&quot;font-size: 20px;&quot;&gt;P-002s NFUSs&lt;/font&gt;" style="rounded=0;whiteSpace=wrap;html=1;" parent="J95X7SRp1siAI0rGyf6k-1" vertex="1">
          <mxGeometry x="261" y="290" width="150" height="40" as="geometry" />
        </mxCell>
        <mxCell id="J95X7SRp1siAI0rGyf6k-30" value="&lt;font style=&quot;font-size: 20px;&quot;&gt;P-005s NFUSs&lt;/font&gt;" style="rounded=0;whiteSpace=wrap;html=1;" parent="J95X7SRp1siAI0rGyf6k-1" vertex="1">
          <mxGeometry x="261" y="340" width="150" height="39.91" as="geometry" />
        </mxCell>
        <mxCell id="J95X7SRp1siAI0rGyf6k-31" value="&lt;font style=&quot;font-size: 18px;&quot;&gt;P-001&#39;s FUSs&lt;/font&gt;" style="rounded=0;whiteSpace=wrap;html=1;" parent="J95X7SRp1siAI0rGyf6k-1" vertex="1">
          <mxGeometry x="111" y="530" width="139" height="40" as="geometry" />
        </mxCell>
        <mxCell id="J95X7SRp1siAI0rGyf6k-32" value="&lt;font style=&quot;font-size: 20px;&quot;&gt;P-004s FUSs&lt;/font&gt;" style="rounded=0;whiteSpace=wrap;html=1;" parent="J95X7SRp1siAI0rGyf6k-1" vertex="1">
          <mxGeometry x="432" y="580.09" width="139" height="39.91" as="geometry" />
        </mxCell>
        <mxCell id="J95X7SRp1siAI0rGyf6k-33" value="&lt;font style=&quot;font-size: 18px;&quot;&gt;P-006s FUSs&lt;/font&gt;" style="rounded=0;whiteSpace=wrap;html=1;" parent="J95X7SRp1siAI0rGyf6k-1" vertex="1">
          <mxGeometry x="432" y="630.09" width="139" height="39.91" as="geometry" />
        </mxCell>
        <mxCell id="J95X7SRp1siAI0rGyf6k-34" value="&lt;font style=&quot;font-size: 20px;&quot;&gt;P-002s FUSs&lt;/font&gt;" style="rounded=0;whiteSpace=wrap;html=1;" parent="J95X7SRp1siAI0rGyf6k-1" vertex="1">
          <mxGeometry x="272" y="690" width="139" height="40.09" as="geometry" />
        </mxCell>
        <mxCell id="J95X7SRp1siAI0rGyf6k-35" value="&lt;font style=&quot;font-size: 20px;&quot;&gt;P-005s FUSs&lt;/font&gt;" style="rounded=0;whiteSpace=wrap;html=1;" parent="J95X7SRp1siAI0rGyf6k-1" vertex="1">
          <mxGeometry x="272" y="740" width="139" height="40.09" as="geometry" />
        </mxCell>
        <mxCell id="J95X7SRp1siAI0rGyf6k-40" style="edgeStyle=orthogonalEdgeStyle;rounded=0;orthogonalLoop=1;jettySize=auto;html=1;exitX=1;exitY=0.5;exitDx=0;exitDy=0;entryX=0.5;entryY=1;entryDx=0;entryDy=0;" parent="1" source="J95X7SRp1siAI0rGyf6k-39" target="J95X7SRp1siAI0rGyf6k-41" edge="1">
          <mxGeometry relative="1" as="geometry">
            <mxPoint x="1400" y="90" as="targetPoint" />
          </mxGeometry>
        </mxCell>
        <mxCell id="J95X7SRp1siAI0rGyf6k-39" value="&lt;font style=&quot;font-size: 20px;&quot;&gt;&lt;b&gt;LLM&lt;/b&gt;&lt;/font&gt;" style="rounded=0;whiteSpace=wrap;html=1;" parent="1" vertex="1">
          <mxGeometry x="1050" y="299.9966666666665" width="120" height="60" as="geometry" />
        </mxCell>
        <mxCell id="J95X7SRp1siAI0rGyf6k-38" style="edgeStyle=orthogonalEdgeStyle;rounded=0;orthogonalLoop=1;jettySize=auto;html=1;exitX=1;exitY=0.25;exitDx=0;exitDy=0;" parent="1" source="J95X7SRp1siAI0rGyf6k-21" target="J95X7SRp1siAI0rGyf6k-39" edge="1">
          <mxGeometry relative="1" as="geometry">
            <mxPoint x="1110" y="335.6666666666665" as="targetPoint" />
          </mxGeometry>
        </mxCell>
        <mxCell id="J95X7SRp1siAI0rGyf6k-53" style="edgeStyle=orthogonalEdgeStyle;rounded=0;orthogonalLoop=1;jettySize=auto;html=1;exitX=1;exitY=0.5;exitDx=0;exitDy=0;entryX=0.5;entryY=0;entryDx=0;entryDy=0;" parent="1" source="J95X7SRp1siAI0rGyf6k-41" target="J95X7SRp1siAI0rGyf6k-52" edge="1">
          <mxGeometry relative="1" as="geometry">
            <Array as="points">
              <mxPoint x="1840" y="-20" />
            </Array>
          </mxGeometry>
        </mxCell>
        <mxCell id="bgGJNaxnmsAul3DNPaWL-9" style="edgeStyle=orthogonalEdgeStyle;rounded=0;orthogonalLoop=1;jettySize=auto;html=1;exitX=1;exitY=0.5;exitDx=0;exitDy=0;entryX=0;entryY=0.5;entryDx=0;entryDy=0;" parent="1" source="J95X7SRp1siAI0rGyf6k-41" target="bgGJNaxnmsAul3DNPaWL-3" edge="1">
          <mxGeometry relative="1" as="geometry">
            <Array as="points">
              <mxPoint x="1840" y="-20" />
              <mxPoint x="1840" y="-170" />
            </Array>
          </mxGeometry>
        </mxCell>
        <mxCell id="J95X7SRp1siAI0rGyf6k-41" value="&lt;font style=&quot;font-size: 20px;&quot;&gt;(CLUSTERED) DECOMPOSED NON-FUNCTIONAL USER STORIES&lt;/font&gt;" style="swimlane;whiteSpace=wrap;html=1;startSize=40;" parent="1" vertex="1">
          <mxGeometry x="960" y="-170" width="650" height="300" as="geometry" />
        </mxCell>
        <mxCell id="J95X7SRp1siAI0rGyf6k-45" value="&lt;font style=&quot;font-size: 20px;&quot;&gt;P-001&#39;s Dec-NFUSs&lt;/font&gt;" style="rounded=0;whiteSpace=wrap;html=1;" parent="J95X7SRp1siAI0rGyf6k-41" vertex="1">
          <mxGeometry x="20" y="50" width="225" height="40" as="geometry" />
        </mxCell>
        <mxCell id="J95X7SRp1siAI0rGyf6k-46" value="&lt;font style=&quot;font-size: 20px;&quot;&gt;P-004s Dec-NFUSs&lt;/font&gt;" style="rounded=0;whiteSpace=wrap;html=1;" parent="J95X7SRp1siAI0rGyf6k-41" vertex="1">
          <mxGeometry x="405" y="100" width="225" height="40.18" as="geometry" />
        </mxCell>
        <mxCell id="J95X7SRp1siAI0rGyf6k-47" value="&lt;font style=&quot;font-size: 20px;&quot;&gt;P-006s Dec-NFUSs&lt;/font&gt;" style="rounded=0;whiteSpace=wrap;html=1;" parent="J95X7SRp1siAI0rGyf6k-41" vertex="1">
          <mxGeometry x="405" y="150.09" width="225" height="39.91" as="geometry" />
        </mxCell>
        <mxCell id="J95X7SRp1siAI0rGyf6k-48" value="&lt;font style=&quot;font-size: 20px;&quot;&gt;P-002s Dec-NFUSs&lt;/font&gt;" style="rounded=0;whiteSpace=wrap;html=1;" parent="J95X7SRp1siAI0rGyf6k-41" vertex="1">
          <mxGeometry x="210" y="200" width="220" height="40" as="geometry" />
        </mxCell>
        <mxCell id="J95X7SRp1siAI0rGyf6k-49" value="&lt;font style=&quot;font-size: 20px;&quot;&gt;P-005s Dec-NFUSs&lt;/font&gt;" style="rounded=0;whiteSpace=wrap;html=1;" parent="J95X7SRp1siAI0rGyf6k-41" vertex="1">
          <mxGeometry x="210" y="250" width="220" height="39.91" as="geometry" />
        </mxCell>
        <mxCell id="J95X7SRp1siAI0rGyf6k-54" style="edgeStyle=orthogonalEdgeStyle;rounded=0;orthogonalLoop=1;jettySize=auto;html=1;exitX=1;exitY=0.5;exitDx=0;exitDy=0;" parent="1" source="J95X7SRp1siAI0rGyf6k-52" target="J95X7SRp1siAI0rGyf6k-55" edge="1">
          <mxGeometry relative="1" as="geometry">
            <mxPoint x="2080" y="395.58823529411757" as="targetPoint" />
          </mxGeometry>
        </mxCell>
        <mxCell id="bgGJNaxnmsAul3DNPaWL-10" value="&lt;font style=&quot;font-size: 20px;&quot;&gt;Identify Conflicts&lt;/font&gt;" style="edgeLabel;html=1;align=center;verticalAlign=middle;resizable=0;points=[];" parent="J95X7SRp1siAI0rGyf6k-54" vertex="1" connectable="0">
          <mxGeometry x="-0.2585" y="4" relative="1" as="geometry">
            <mxPoint as="offset" />
          </mxGeometry>
        </mxCell>
        <mxCell id="J95X7SRp1siAI0rGyf6k-52" value="&lt;font style=&quot;font-size: 20px;&quot;&gt;&lt;b&gt;LLM&lt;/b&gt;&lt;/font&gt;" style="rounded=0;whiteSpace=wrap;html=1;" parent="1" vertex="1">
          <mxGeometry x="1780" y="365.67" width="120" height="60" as="geometry" />
        </mxCell>
        <mxCell id="J95X7SRp1siAI0rGyf6k-50" style="edgeStyle=orthogonalEdgeStyle;rounded=0;orthogonalLoop=1;jettySize=auto;html=1;exitX=1;exitY=0.5;exitDx=0;exitDy=0;entryX=0;entryY=0.75;entryDx=0;entryDy=0;" parent="1" source="J95X7SRp1siAI0rGyf6k-21" target="J95X7SRp1siAI0rGyf6k-52" edge="1">
          <mxGeometry relative="1" as="geometry">
            <mxPoint x="1830" y="410" as="targetPoint" />
          </mxGeometry>
        </mxCell>
        <mxCell id="bgGJNaxnmsAul3DNPaWL-2" style="edgeStyle=orthogonalEdgeStyle;rounded=0;orthogonalLoop=1;jettySize=auto;html=1;exitX=0.5;exitY=0;exitDx=0;exitDy=0;" parent="1" source="J95X7SRp1siAI0rGyf6k-55" target="bgGJNaxnmsAul3DNPaWL-3" edge="1">
          <mxGeometry relative="1" as="geometry">
            <mxPoint x="2288.7142857142862" y="-240" as="targetPoint" />
          </mxGeometry>
        </mxCell>
        <mxCell id="J95X7SRp1siAI0rGyf6k-55" value="&lt;font style=&quot;font-size: 26px;&quot;&gt;(CLUSTERED) NFUS CONFLICTS BETWEEN&lt;/font&gt;&lt;div&gt;&lt;font style=&quot;font-size: 26px;&quot;&gt;&lt;font style=&quot;&quot;&gt;PERSONAS&amp;nbsp;&lt;/font&gt;&lt;span style=&quot;background-color: transparent; color: light-dark(rgb(0, 0, 0), rgb(255, 255, 255));&quot;&gt;WITHIN EACH GROUP&lt;/span&gt;&lt;/font&gt;&lt;/div&gt;" style="swimlane;whiteSpace=wrap;html=1;startSize=70;" parent="1" vertex="1">
          <mxGeometry x="1980" y="-70" width="620" height="350" as="geometry" />
        </mxCell>
        <mxCell id="J95X7SRp1siAI0rGyf6k-56" value="&lt;font style=&quot;font-size: 20px;&quot;&gt;NFUS conflicts within User Group 1 (Devs)&amp;nbsp;&lt;/font&gt;&lt;div&gt;&lt;font style=&quot;font-size: 20px;&quot;&gt;(not available since only 1 Dev Persona in ALFRED system)&lt;/font&gt;&lt;/div&gt;" style="rounded=0;whiteSpace=wrap;html=1;" parent="J95X7SRp1siAI0rGyf6k-55" vertex="1">
          <mxGeometry x="30" y="110" width="560" height="60.27" as="geometry" />
        </mxCell>
        <mxCell id="J95X7SRp1siAI0rGyf6k-57" value="&lt;font style=&quot;font-size: 20px;&quot;&gt;NFUS conflicts within User Group 2 (Caregivers)&lt;/font&gt;" style="rounded=0;whiteSpace=wrap;html=1;" parent="J95X7SRp1siAI0rGyf6k-55" vertex="1">
          <mxGeometry x="30" y="200.27" width="560" height="40.18" as="geometry" />
        </mxCell>
        <mxCell id="J95X7SRp1siAI0rGyf6k-58" value="&lt;font style=&quot;font-size: 20px;&quot;&gt;NFUS conflicts within User Group 3 (Olders)&lt;/font&gt;" style="rounded=0;whiteSpace=wrap;html=1;" parent="J95X7SRp1siAI0rGyf6k-55" vertex="1">
          <mxGeometry x="30" y="280.27" width="560" height="40.18" as="geometry" />
        </mxCell>
        <mxCell id="bgGJNaxnmsAul3DNPaWL-16" style="edgeStyle=orthogonalEdgeStyle;rounded=0;orthogonalLoop=1;jettySize=auto;html=1;exitX=1;exitY=0.5;exitDx=0;exitDy=0;entryX=0;entryY=0.5;entryDx=0;entryDy=0;" parent="1" source="J95X7SRp1siAI0rGyf6k-59" target="bgGJNaxnmsAul3DNPaWL-18" edge="1">
          <mxGeometry relative="1" as="geometry">
            <mxPoint x="4050" y="-344" as="targetPoint" />
          </mxGeometry>
        </mxCell>
        <mxCell id="J95X7SRp1siAI0rGyf6k-59" value="&lt;font style=&quot;font-size: 25px;&quot;&gt;(CLUSTERED) NFUS CONFLICTS BETWEEN PERSONAS&lt;/font&gt;&lt;div&gt;&lt;font style=&quot;font-size: 25px;&quot;&gt;ACROSS EACH PAIR OF GROUPS&lt;/font&gt;&lt;/div&gt;" style="swimlane;whiteSpace=wrap;html=1;startSize=60;" parent="1" vertex="1">
          <mxGeometry x="3070" y="-500" width="720" height="320" as="geometry" />
        </mxCell>
        <mxCell id="J95X7SRp1siAI0rGyf6k-60" value="&lt;font style=&quot;font-size: 20px;&quot;&gt;NFUS conflicts between User Group 1 (Devs) &amp;amp; User Group 2 (Caregivers)&lt;/font&gt;" style="rounded=0;whiteSpace=wrap;html=1;" parent="J95X7SRp1siAI0rGyf6k-59" vertex="1">
          <mxGeometry x="10" y="79.73" width="700" height="40.18" as="geometry" />
        </mxCell>
        <mxCell id="J95X7SRp1siAI0rGyf6k-61" value="&lt;font style=&quot;font-size: 20px;&quot;&gt;NFUS conflicts within User Group 2 (Caregivers) &amp;amp; User Group 3 (Olders)&lt;/font&gt;" style="rounded=0;whiteSpace=wrap;html=1;" parent="J95X7SRp1siAI0rGyf6k-59" vertex="1">
          <mxGeometry x="10" y="160" width="700" height="40.18" as="geometry" />
        </mxCell>
        <mxCell id="J95X7SRp1siAI0rGyf6k-62" value="&lt;font style=&quot;font-size: 20px;&quot;&gt;NFUS conflicts within User Group 3 (Olders) &amp;amp; User Group 1 (Devs)&lt;/font&gt;" style="rounded=0;whiteSpace=wrap;html=1;" parent="J95X7SRp1siAI0rGyf6k-59" vertex="1">
          <mxGeometry x="10" y="240" width="700" height="40.18" as="geometry" />
        </mxCell>
        <mxCell id="bgGJNaxnmsAul3DNPaWL-4" style="edgeStyle=orthogonalEdgeStyle;rounded=0;orthogonalLoop=1;jettySize=auto;html=1;exitX=0.5;exitY=0;exitDx=0;exitDy=0;" parent="1" source="bgGJNaxnmsAul3DNPaWL-3" target="bgGJNaxnmsAul3DNPaWL-5" edge="1">
          <mxGeometry relative="1" as="geometry">
            <mxPoint x="2289" y="-350" as="targetPoint" />
          </mxGeometry>
        </mxCell>
        <mxCell id="bgGJNaxnmsAul3DNPaWL-7" value="&lt;font style=&quot;font-size: 20px;&quot;&gt;Resolve Conflicts&lt;/font&gt;" style="edgeLabel;html=1;align=center;verticalAlign=middle;resizable=0;points=[];" parent="bgGJNaxnmsAul3DNPaWL-4" vertex="1" connectable="0">
          <mxGeometry x="0.0909" relative="1" as="geometry">
            <mxPoint as="offset" />
          </mxGeometry>
        </mxCell>
        <mxCell id="bgGJNaxnmsAul3DNPaWL-3" value="&lt;b&gt;&lt;font style=&quot;font-size: 20px;&quot;&gt;LLM&lt;/font&gt;&lt;/b&gt;" style="rounded=0;whiteSpace=wrap;html=1;" parent="1" vertex="1">
          <mxGeometry x="2230.004285714286" y="-200" width="120" height="60" as="geometry" />
        </mxCell>
        <mxCell id="bgGJNaxnmsAul3DNPaWL-11" style="edgeStyle=orthogonalEdgeStyle;rounded=0;orthogonalLoop=1;jettySize=auto;html=1;exitX=1;exitY=0.5;exitDx=0;exitDy=0;" parent="1" source="bgGJNaxnmsAul3DNPaWL-5" target="bgGJNaxnmsAul3DNPaWL-12" edge="1">
          <mxGeometry relative="1" as="geometry">
            <mxPoint x="2870" y="-344" as="targetPoint" />
          </mxGeometry>
        </mxCell>
        <mxCell id="bgGJNaxnmsAul3DNPaWL-5" value="&lt;font style=&quot;font-size: 25px;&quot;&gt;(CLUSTERED) NON-FUNCTIONAL USER STORIES&amp;nbsp;&lt;/font&gt;&lt;div&gt;&lt;font style=&quot;font-size: 25px;&quot;&gt;(NO CONFLLICTS BETWEEN WITHIN EACH GROUP)&lt;/font&gt;&lt;/div&gt;" style="swimlane;whiteSpace=wrap;html=1;startSize=200;" parent="1" vertex="1">
          <mxGeometry x="1980" y="-400" width="620" height="120" as="geometry" />
        </mxCell>
        <mxCell id="bgGJNaxnmsAul3DNPaWL-13" style="edgeStyle=orthogonalEdgeStyle;rounded=0;orthogonalLoop=1;jettySize=auto;html=1;exitX=1;exitY=0.5;exitDx=0;exitDy=0;entryX=0;entryY=0.5;entryDx=0;entryDy=0;" parent="1" source="bgGJNaxnmsAul3DNPaWL-12" target="J95X7SRp1siAI0rGyf6k-59" edge="1">
          <mxGeometry relative="1" as="geometry" />
        </mxCell>
        <mxCell id="bgGJNaxnmsAul3DNPaWL-14" value="&lt;font style=&quot;font-size: 20px;&quot;&gt;Identify Conflicts&lt;/font&gt;" style="edgeLabel;html=1;align=center;verticalAlign=middle;resizable=0;points=[];" parent="bgGJNaxnmsAul3DNPaWL-13" vertex="1" connectable="0">
          <mxGeometry x="-0.0573" y="-3" relative="1" as="geometry">
            <mxPoint as="offset" />
          </mxGeometry>
        </mxCell>
        <mxCell id="bgGJNaxnmsAul3DNPaWL-12" value="&lt;b&gt;&lt;font style=&quot;font-size: 20px;&quot;&gt;LLM&lt;/font&gt;&lt;/b&gt;" style="rounded=0;whiteSpace=wrap;html=1;" parent="1" vertex="1">
          <mxGeometry x="2690" y="-370" width="120" height="60" as="geometry" />
        </mxCell>
        <mxCell id="bgGJNaxnmsAul3DNPaWL-50" style="edgeStyle=orthogonalEdgeStyle;rounded=0;orthogonalLoop=1;jettySize=auto;html=1;exitX=0.5;exitY=1;exitDx=0;exitDy=0;entryX=0.5;entryY=0;entryDx=0;entryDy=0;" parent="1" source="bgGJNaxnmsAul3DNPaWL-17" edge="1" target="SCEInfA-cX7gFjkzsH1g-2">
          <mxGeometry relative="1" as="geometry">
            <mxPoint x="4190" y="310" as="targetPoint" />
            <Array as="points" />
          </mxGeometry>
        </mxCell>
        <mxCell id="bgGJNaxnmsAul3DNPaWL-17" value="&lt;font style=&quot;font-size: 25px;&quot;&gt;&lt;b style=&quot;&quot;&gt;FINAL NON-FUNCTIONAL USER STORIES&lt;/b&gt;&lt;/font&gt;" style="rounded=0;whiteSpace=wrap;html=1;" parent="1" vertex="1">
          <mxGeometry x="3930" y="-60" width="520" height="60" as="geometry" />
        </mxCell>
        <mxCell id="bgGJNaxnmsAul3DNPaWL-19" style="edgeStyle=orthogonalEdgeStyle;rounded=0;orthogonalLoop=1;jettySize=auto;html=1;exitX=1;exitY=0.5;exitDx=0;exitDy=0;entryX=0.5;entryY=0;entryDx=0;entryDy=0;" parent="1" source="bgGJNaxnmsAul3DNPaWL-18" target="bgGJNaxnmsAul3DNPaWL-17" edge="1">
          <mxGeometry relative="1" as="geometry">
            <Array as="points">
              <mxPoint x="4190" y="-340" />
            </Array>
          </mxGeometry>
        </mxCell>
        <mxCell id="bgGJNaxnmsAul3DNPaWL-20" value="&lt;font style=&quot;font-size: 20px;&quot;&gt;Resolve conflicts&lt;/font&gt;" style="edgeLabel;html=1;align=center;verticalAlign=middle;resizable=0;points=[];" parent="bgGJNaxnmsAul3DNPaWL-19" vertex="1" connectable="0">
          <mxGeometry x="0.0319" y="-1" relative="1" as="geometry">
            <mxPoint y="1" as="offset" />
          </mxGeometry>
        </mxCell>
        <mxCell id="bgGJNaxnmsAul3DNPaWL-18" value="&lt;b&gt;&lt;font style=&quot;font-size: 25px;&quot;&gt;LLM&lt;/font&gt;&lt;/b&gt;" style="rounded=0;whiteSpace=wrap;html=1;" parent="1" vertex="1">
          <mxGeometry x="3910" y="-375" width="120" height="70" as="geometry" />
        </mxCell>
        <mxCell id="bgGJNaxnmsAul3DNPaWL-30" style="edgeStyle=orthogonalEdgeStyle;rounded=0;orthogonalLoop=1;jettySize=auto;html=1;entryX=0.5;entryY=0;entryDx=0;entryDy=0;" parent="1" source="bgGJNaxnmsAul3DNPaWL-21" target="bgGJNaxnmsAul3DNPaWL-29" edge="1">
          <mxGeometry relative="1" as="geometry">
            <Array as="points" />
            <mxPoint x="2320" y="1020" as="targetPoint" />
          </mxGeometry>
        </mxCell>
        <mxCell id="bgGJNaxnmsAul3DNPaWL-21" value="&lt;font style=&quot;font-size: 26px;&quot;&gt;(CLUSTERED) FUS CONFLICTS BETWEEN PERSONAS&amp;nbsp;&lt;/font&gt;&lt;span style=&quot;font-size: 26px; background-color: transparent; color: light-dark(rgb(0, 0, 0), rgb(255, 255, 255));&quot;&gt;WITHIN EACH GROUP&lt;/span&gt;" style="swimlane;whiteSpace=wrap;html=1;startSize=80;" parent="1" vertex="1">
          <mxGeometry x="1980" y="580" width="620" height="360" as="geometry" />
        </mxCell>
        <mxCell id="bgGJNaxnmsAul3DNPaWL-22" value="&lt;font style=&quot;font-size: 20px;&quot;&gt;FUS conflicts within User Group 1 (Devs)&amp;nbsp;&lt;/font&gt;&lt;div&gt;&lt;font style=&quot;font-size: 20px;&quot;&gt;(not available since only 1 Dev Persona in ALFRED system)&lt;/font&gt;&lt;/div&gt;" style="rounded=0;whiteSpace=wrap;html=1;" parent="bgGJNaxnmsAul3DNPaWL-21" vertex="1">
          <mxGeometry x="30" y="120" width="560" height="60.27" as="geometry" />
        </mxCell>
        <mxCell id="bgGJNaxnmsAul3DNPaWL-23" value="&lt;font style=&quot;font-size: 20px;&quot;&gt;FUS conflicts within User Group 2 (Caregivers)&lt;/font&gt;" style="rounded=0;whiteSpace=wrap;html=1;" parent="bgGJNaxnmsAul3DNPaWL-21" vertex="1">
          <mxGeometry x="30" y="210.27" width="560" height="40.18" as="geometry" />
        </mxCell>
        <mxCell id="bgGJNaxnmsAul3DNPaWL-24" value="&lt;font style=&quot;font-size: 20px;&quot;&gt;FUS conflicts within User Group 3 (Olders)&lt;/font&gt;" style="rounded=0;whiteSpace=wrap;html=1;" parent="bgGJNaxnmsAul3DNPaWL-21" vertex="1">
          <mxGeometry x="30" y="290.27" width="560" height="40.18" as="geometry" />
        </mxCell>
        <mxCell id="bgGJNaxnmsAul3DNPaWL-25" value="&lt;font style=&quot;font-size: 20px;&quot;&gt;&lt;b&gt;LLM&lt;/b&gt;&lt;/font&gt;" style="rounded=0;whiteSpace=wrap;html=1;" parent="1" vertex="1">
          <mxGeometry x="1350" y="770" width="120" height="60" as="geometry" />
        </mxCell>
        <mxCell id="bgGJNaxnmsAul3DNPaWL-26" style="edgeStyle=orthogonalEdgeStyle;rounded=0;orthogonalLoop=1;jettySize=auto;html=1;exitX=1;exitY=0.5;exitDx=0;exitDy=0;" parent="1" source="bgGJNaxnmsAul3DNPaWL-25" target="bgGJNaxnmsAul3DNPaWL-21" edge="1">
          <mxGeometry relative="1" as="geometry">
            <mxPoint x="2620" y="380" as="targetPoint" />
            <mxPoint x="2230" y="496" as="sourcePoint" />
          </mxGeometry>
        </mxCell>
        <mxCell id="bgGJNaxnmsAul3DNPaWL-27" value="&lt;font style=&quot;font-size: 20px;&quot;&gt;Identify Conflicts&lt;/font&gt;" style="edgeLabel;html=1;align=center;verticalAlign=middle;resizable=0;points=[];" parent="bgGJNaxnmsAul3DNPaWL-26" vertex="1" connectable="0">
          <mxGeometry x="-0.2585" y="4" relative="1" as="geometry">
            <mxPoint x="31" y="-16" as="offset" />
          </mxGeometry>
        </mxCell>
        <mxCell id="bgGJNaxnmsAul3DNPaWL-29" value="&lt;b&gt;&lt;font style=&quot;font-size: 26px;&quot;&gt;LLM&lt;/font&gt;&lt;/b&gt;" style="rounded=0;whiteSpace=wrap;html=1;" parent="1" vertex="1">
          <mxGeometry x="2230" y="1030" width="120" height="60" as="geometry" />
        </mxCell>
        <mxCell id="bgGJNaxnmsAul3DNPaWL-31" style="edgeStyle=orthogonalEdgeStyle;rounded=0;orthogonalLoop=1;jettySize=auto;html=1;" parent="1" source="bgGJNaxnmsAul3DNPaWL-29" target="bgGJNaxnmsAul3DNPaWL-33" edge="1">
          <mxGeometry relative="1" as="geometry">
            <mxPoint x="3216.25" y="730" as="targetPoint" />
            <mxPoint x="3217.25" y="910" as="sourcePoint" />
          </mxGeometry>
        </mxCell>
        <mxCell id="bgGJNaxnmsAul3DNPaWL-32" value="&lt;font style=&quot;font-size: 20px;&quot;&gt;Resolve&amp;nbsp;&lt;/font&gt;&lt;div&gt;&lt;font style=&quot;font-size: 20px;&quot;&gt;Conflicts&lt;/font&gt;&lt;/div&gt;" style="edgeLabel;html=1;align=center;verticalAlign=middle;resizable=0;points=[];" parent="bgGJNaxnmsAul3DNPaWL-31" vertex="1" connectable="0">
          <mxGeometry x="0.0909" relative="1" as="geometry">
            <mxPoint x="-6" as="offset" />
          </mxGeometry>
        </mxCell>
        <mxCell id="bgGJNaxnmsAul3DNPaWL-33" value="&lt;font style=&quot;font-size: 26px;&quot;&gt;(CLUSTERED) FUNCTIONAL USER STORIES&amp;nbsp;&lt;/font&gt;&lt;div&gt;&lt;font style=&quot;font-size: 26px;&quot;&gt;(NO CONFLLICTS BETWEEN WITHIN EACH GROUP)&lt;/font&gt;&lt;/div&gt;" style="swimlane;whiteSpace=wrap;html=1;startSize=200;" parent="1" vertex="1">
          <mxGeometry x="1980" y="1175" width="620" height="110" as="geometry" />
        </mxCell>
        <mxCell id="bgGJNaxnmsAul3DNPaWL-36" style="edgeStyle=orthogonalEdgeStyle;rounded=0;orthogonalLoop=1;jettySize=auto;html=1;exitX=1;exitY=0.5;exitDx=0;exitDy=0;entryX=0;entryY=0.5;entryDx=0;entryDy=0;" parent="1" source="bgGJNaxnmsAul3DNPaWL-37" target="bgGJNaxnmsAul3DNPaWL-48" edge="1">
          <mxGeometry relative="1" as="geometry">
            <mxPoint x="4128" y="1231" as="targetPoint" />
          </mxGeometry>
        </mxCell>
        <mxCell id="bgGJNaxnmsAul3DNPaWL-37" value="&lt;font style=&quot;font-size: 25px;&quot;&gt;(CLUSTERED) FUS CONFLICTS BETWEEN PERSONAS&lt;/font&gt;&lt;div&gt;&lt;font style=&quot;font-size: 25px;&quot;&gt;ACROSS EACH PAIR OF GROUPS&lt;/font&gt;&lt;/div&gt;" style="swimlane;whiteSpace=wrap;html=1;startSize=60;" parent="1" vertex="1">
          <mxGeometry x="3080" y="1070" width="720" height="320" as="geometry" />
        </mxCell>
        <mxCell id="bgGJNaxnmsAul3DNPaWL-38" value="&lt;font style=&quot;font-size: 20px;&quot;&gt;FUS conflicts between User Group 1 (Devs) &amp;amp; User Group 2 (Caregivers)&lt;/font&gt;" style="rounded=0;whiteSpace=wrap;html=1;" parent="bgGJNaxnmsAul3DNPaWL-37" vertex="1">
          <mxGeometry x="10" y="79.73" width="700" height="40.18" as="geometry" />
        </mxCell>
        <mxCell id="bgGJNaxnmsAul3DNPaWL-39" value="&lt;font style=&quot;font-size: 20px;&quot;&gt;FUS conflicts within User Group 2 (Caregivers) &amp;amp; User Group 3 (Olders)&lt;/font&gt;" style="rounded=0;whiteSpace=wrap;html=1;" parent="bgGJNaxnmsAul3DNPaWL-37" vertex="1">
          <mxGeometry x="10" y="160" width="700" height="40.18" as="geometry" />
        </mxCell>
        <mxCell id="bgGJNaxnmsAul3DNPaWL-40" value="&lt;font style=&quot;font-size: 20px;&quot;&gt;FUS conflicts within User Group 3 (Olders) &amp;amp; User Group 1 (Devs)&lt;/font&gt;" style="rounded=0;whiteSpace=wrap;html=1;" parent="bgGJNaxnmsAul3DNPaWL-37" vertex="1">
          <mxGeometry x="10" y="240" width="700" height="40.18" as="geometry" />
        </mxCell>
        <mxCell id="bgGJNaxnmsAul3DNPaWL-41" style="edgeStyle=orthogonalEdgeStyle;rounded=0;orthogonalLoop=1;jettySize=auto;html=1;" parent="1" source="bgGJNaxnmsAul3DNPaWL-33" target="bgGJNaxnmsAul3DNPaWL-44" edge="1">
          <mxGeometry relative="1" as="geometry">
            <mxPoint x="2948" y="1221" as="targetPoint" />
            <mxPoint x="2610" y="1220" as="sourcePoint" />
          </mxGeometry>
        </mxCell>
        <mxCell id="bgGJNaxnmsAul3DNPaWL-42" style="edgeStyle=orthogonalEdgeStyle;rounded=0;orthogonalLoop=1;jettySize=auto;html=1;exitX=1;exitY=0.5;exitDx=0;exitDy=0;entryX=0;entryY=0.5;entryDx=0;entryDy=0;" parent="1" source="bgGJNaxnmsAul3DNPaWL-44" target="bgGJNaxnmsAul3DNPaWL-37" edge="1">
          <mxGeometry relative="1" as="geometry" />
        </mxCell>
        <mxCell id="bgGJNaxnmsAul3DNPaWL-43" value="&lt;font style=&quot;font-size: 20px;&quot;&gt;Identify&amp;nbsp;&lt;/font&gt;&lt;div&gt;&lt;font style=&quot;font-size: 20px;&quot;&gt;Conflicts&lt;/font&gt;&lt;/div&gt;" style="edgeLabel;html=1;align=center;verticalAlign=middle;resizable=0;points=[];" parent="bgGJNaxnmsAul3DNPaWL-42" vertex="1" connectable="0">
          <mxGeometry x="-0.0573" y="-3" relative="1" as="geometry">
            <mxPoint as="offset" />
          </mxGeometry>
        </mxCell>
        <mxCell id="bgGJNaxnmsAul3DNPaWL-44" value="&lt;b&gt;&lt;font style=&quot;font-size: 20px;&quot;&gt;LLM&lt;/font&gt;&lt;/b&gt;" style="rounded=0;whiteSpace=wrap;html=1;" parent="1" vertex="1">
          <mxGeometry x="2768" y="1200" width="120" height="60" as="geometry" />
        </mxCell>
        <mxCell id="SCEInfA-cX7gFjkzsH1g-1" style="edgeStyle=orthogonalEdgeStyle;rounded=0;orthogonalLoop=1;jettySize=auto;html=1;exitX=0.5;exitY=0;exitDx=0;exitDy=0;" edge="1" parent="1" source="bgGJNaxnmsAul3DNPaWL-45" target="SCEInfA-cX7gFjkzsH1g-2">
          <mxGeometry relative="1" as="geometry">
            <mxPoint x="4190" y="590" as="targetPoint" />
          </mxGeometry>
        </mxCell>
        <mxCell id="bgGJNaxnmsAul3DNPaWL-45" value="&lt;font style=&quot;font-size: 26px;&quot;&gt;&lt;b style=&quot;&quot;&gt;FINAL FUNCTIONAL USER STORIES&lt;/b&gt;&lt;/font&gt;" style="rounded=0;whiteSpace=wrap;html=1;" parent="1" vertex="1">
          <mxGeometry x="3930" y="910" width="520" height="60" as="geometry" />
        </mxCell>
        <mxCell id="bgGJNaxnmsAul3DNPaWL-46" style="edgeStyle=orthogonalEdgeStyle;rounded=0;orthogonalLoop=1;jettySize=auto;html=1;exitX=1;exitY=0.5;exitDx=0;exitDy=0;entryX=0.5;entryY=1;entryDx=0;entryDy=0;" parent="1" source="bgGJNaxnmsAul3DNPaWL-48" target="bgGJNaxnmsAul3DNPaWL-45" edge="1">
          <mxGeometry relative="1" as="geometry">
            <Array as="points">
              <mxPoint x="4190" y="1230" />
            </Array>
            <mxPoint x="4270" y="870" as="targetPoint" />
          </mxGeometry>
        </mxCell>
        <mxCell id="bgGJNaxnmsAul3DNPaWL-47" value="&lt;font style=&quot;font-size: 20px;&quot;&gt;Resolve conflicts&lt;/font&gt;" style="edgeLabel;html=1;align=center;verticalAlign=middle;resizable=0;points=[];" parent="bgGJNaxnmsAul3DNPaWL-46" vertex="1" connectable="0">
          <mxGeometry x="0.0319" y="-1" relative="1" as="geometry">
            <mxPoint x="-1" y="-54" as="offset" />
          </mxGeometry>
        </mxCell>
        <mxCell id="bgGJNaxnmsAul3DNPaWL-48" value="&lt;b&gt;&lt;font style=&quot;font-size: 25px;&quot;&gt;LLM&lt;/font&gt;&lt;/b&gt;" style="rounded=0;whiteSpace=wrap;html=1;" parent="1" vertex="1">
          <mxGeometry x="3910" y="1200" width="120" height="60" as="geometry" />
        </mxCell>
        <mxCell id="SCEInfA-cX7gFjkzsH1g-2" value="&lt;b&gt;&lt;font style=&quot;font-size: 40px;&quot;&gt;FINAL USER STORIES&amp;nbsp;&lt;/font&gt;&lt;/b&gt;&lt;div&gt;&lt;font style=&quot;font-size: 40px;&quot;&gt;(NO INCONSISTENCIES)&lt;/font&gt;&lt;/div&gt;" style="rounded=0;whiteSpace=wrap;html=1;" vertex="1" parent="1">
          <mxGeometry x="3800" y="360" width="780" height="260" as="geometry" />
        </mxCell>
        <mxCell id="SCEInfA-cX7gFjkzsH1g-4" value="&lt;font style=&quot;font-size: 36px;&quot;&gt;SYSTEM (e.g., ALFRED)&lt;/font&gt;" style="swimlane;whiteSpace=wrap;html=1;startSize=70;strokeWidth=3;" vertex="1" parent="1">
          <mxGeometry x="-1200" y="10" width="920" height="1090" as="geometry" />
        </mxCell>
        <mxCell id="SCEInfA-cX7gFjkzsH1g-10" value="&lt;b&gt;&lt;font style=&quot;font-size: 28px;&quot;&gt;SYSTEM CONTEXT&lt;/font&gt;&lt;/b&gt;&lt;div&gt;&lt;b&gt;&lt;font style=&quot;font-size: 28px;&quot;&gt;&lt;br&gt;&lt;/font&gt;&lt;/b&gt;&lt;/div&gt;&lt;div&gt;&lt;font style=&quot;font-size: 28px;&quot;&gt;SUMMARY&lt;/font&gt;&lt;div&gt;&lt;span style=&quot;font-size: 28px;&quot;&gt;&amp;amp; PILLARS&lt;/span&gt;&lt;/div&gt;&lt;/div&gt;" style="rounded=0;whiteSpace=wrap;html=1;strokeWidth=2;" vertex="1" parent="SCEInfA-cX7gFjkzsH1g-4">
          <mxGeometry x="300" y="130" width="320" height="220" as="geometry" />
        </mxCell>
        <mxCell id="SCEInfA-cX7gFjkzsH1g-23" style="edgeStyle=orthogonalEdgeStyle;rounded=0;orthogonalLoop=1;jettySize=auto;html=1;exitX=1;exitY=0.25;exitDx=0;exitDy=0;dashed=1;" edge="1" parent="SCEInfA-cX7gFjkzsH1g-4" source="SCEInfA-cX7gFjkzsH1g-14">
          <mxGeometry relative="1" as="geometry">
            <mxPoint x="2090" y="320" as="targetPoint" />
            <Array as="points">
              <mxPoint x="1110" y="523" />
              <mxPoint x="1110" y="-650" />
              <mxPoint x="2090" y="-650" />
            </Array>
          </mxGeometry>
        </mxCell>
        <mxCell id="SCEInfA-cX7gFjkzsH1g-24" style="edgeStyle=orthogonalEdgeStyle;rounded=0;orthogonalLoop=1;jettySize=auto;html=1;dashed=1;" edge="1" parent="SCEInfA-cX7gFjkzsH1g-4">
          <mxGeometry relative="1" as="geometry">
            <mxPoint x="3040" y="-180" as="targetPoint" />
            <mxPoint x="2090" y="-450" as="sourcePoint" />
            <Array as="points">
              <mxPoint x="2090" y="-650" />
              <mxPoint x="3040" y="-650" />
            </Array>
          </mxGeometry>
        </mxCell>
        <mxCell id="SCEInfA-cX7gFjkzsH1g-29" style="edgeStyle=orthogonalEdgeStyle;rounded=0;orthogonalLoop=1;jettySize=auto;html=1;dashed=1;" edge="1" parent="SCEInfA-cX7gFjkzsH1g-4">
          <mxGeometry relative="1" as="geometry">
            <mxPoint x="3840" y="-350" as="targetPoint" />
            <mxPoint x="3040" y="-650" as="sourcePoint" />
            <Array as="points">
              <mxPoint x="3840" y="-650" />
            </Array>
          </mxGeometry>
        </mxCell>
        <mxCell id="SCEInfA-cX7gFjkzsH1g-30" style="edgeStyle=orthogonalEdgeStyle;rounded=0;orthogonalLoop=1;jettySize=auto;html=1;dashed=1;" edge="1" parent="SCEInfA-cX7gFjkzsH1g-4">
          <mxGeometry relative="1" as="geometry">
            <mxPoint x="5050" y="-350" as="targetPoint" />
            <mxPoint x="3840" y="-650" as="sourcePoint" />
            <Array as="points">
              <mxPoint x="5050" y="-650" />
              <mxPoint x="5050" y="-350" />
            </Array>
          </mxGeometry>
        </mxCell>
        <mxCell id="SCEInfA-cX7gFjkzsH1g-14" value="&lt;font style=&quot;font-size: 28px;&quot;&gt;&lt;b&gt;NON-FUNCTIONAL USER STORY CONFLICT HANDLING TECHNIQUE DESCRIPTION&lt;/b&gt;&lt;/font&gt;" style="swimlane;fontStyle=0;childLayout=stackLayout;horizontal=1;startSize=110;horizontalStack=0;resizeParent=1;resizeParentMax=0;resizeLast=0;collapsible=1;marginBottom=0;whiteSpace=wrap;html=1;strokeWidth=2;" vertex="1" parent="SCEInfA-cX7gFjkzsH1g-4">
          <mxGeometry x="65" y="470" width="790" height="210" as="geometry" />
        </mxCell>
        <mxCell id="SCEInfA-cX7gFjkzsH1g-15" value="&lt;font style=&quot;font-size: 24px;&quot;&gt;Identification &amp;amp; Classification: Sadana &amp;amp; Liu technique&lt;/font&gt;" style="text;strokeColor=none;fillColor=none;align=left;verticalAlign=middle;spacingLeft=4;spacingRight=4;overflow=hidden;points=[[0,0.5],[1,0.5]];portConstraint=eastwest;rotatable=0;whiteSpace=wrap;html=1;" vertex="1" parent="SCEInfA-cX7gFjkzsH1g-14">
          <mxGeometry y="110" width="790" height="50" as="geometry" />
        </mxCell>
        <mxCell id="SCEInfA-cX7gFjkzsH1g-16" value="&lt;font style=&quot;font-size: 24px;&quot;&gt;Resolution strategies based on Sadana &amp;amp; Liu technique&lt;/font&gt;" style="text;strokeColor=none;fillColor=none;align=left;verticalAlign=middle;spacingLeft=4;spacingRight=4;overflow=hidden;points=[[0,0.5],[1,0.5]];portConstraint=eastwest;rotatable=0;whiteSpace=wrap;html=1;" vertex="1" parent="SCEInfA-cX7gFjkzsH1g-14">
          <mxGeometry y="160" width="790" height="50" as="geometry" />
        </mxCell>
        <mxCell id="SCEInfA-cX7gFjkzsH1g-25" style="edgeStyle=orthogonalEdgeStyle;rounded=0;orthogonalLoop=1;jettySize=auto;html=1;exitX=1;exitY=0.25;exitDx=0;exitDy=0;dashed=1;" edge="1" parent="SCEInfA-cX7gFjkzsH1g-4" source="SCEInfA-cX7gFjkzsH1g-17">
          <mxGeometry relative="1" as="geometry">
            <mxPoint x="2300" y="790" as="targetPoint" />
            <Array as="points">
              <mxPoint x="1110" y="863" />
              <mxPoint x="1110" y="1440" />
              <mxPoint x="2300" y="1440" />
            </Array>
          </mxGeometry>
        </mxCell>
        <mxCell id="SCEInfA-cX7gFjkzsH1g-26" style="edgeStyle=orthogonalEdgeStyle;rounded=0;orthogonalLoop=1;jettySize=auto;html=1;dashed=1;" edge="1" parent="SCEInfA-cX7gFjkzsH1g-4">
          <mxGeometry relative="1" as="geometry">
            <mxPoint x="3490" y="980" as="targetPoint" />
            <mxPoint x="2300" y="1440" as="sourcePoint" />
            <Array as="points">
              <mxPoint x="2300" y="1440" />
              <mxPoint x="2770" y="1440" />
              <mxPoint x="2770" y="980" />
            </Array>
          </mxGeometry>
        </mxCell>
        <mxCell id="SCEInfA-cX7gFjkzsH1g-27" style="edgeStyle=orthogonalEdgeStyle;rounded=0;orthogonalLoop=1;jettySize=auto;html=1;dashed=1;" edge="1" parent="SCEInfA-cX7gFjkzsH1g-4">
          <mxGeometry relative="1" as="geometry">
            <mxPoint x="3888" y="1220" as="targetPoint" />
            <mxPoint x="2770" y="1440" as="sourcePoint" />
            <Array as="points">
              <mxPoint x="2770" y="1440" />
              <mxPoint x="3888" y="1440" />
            </Array>
          </mxGeometry>
        </mxCell>
        <mxCell id="SCEInfA-cX7gFjkzsH1g-28" style="edgeStyle=orthogonalEdgeStyle;rounded=0;orthogonalLoop=1;jettySize=auto;html=1;dashed=1;" edge="1" parent="SCEInfA-cX7gFjkzsH1g-4">
          <mxGeometry relative="1" as="geometry">
            <mxPoint x="5053.9996337890625" y="1220" as="targetPoint" />
            <mxPoint x="3890" y="1440" as="sourcePoint" />
            <Array as="points">
              <mxPoint x="3890" y="1440" />
              <mxPoint x="5054" y="1440" />
            </Array>
          </mxGeometry>
        </mxCell>
        <mxCell id="SCEInfA-cX7gFjkzsH1g-17" value="&lt;font style=&quot;font-size: 28px;&quot;&gt;&lt;b&gt;FUNCTIONAL USER STORY CONFLICT HANDLING TECHNIQUE DESCRIPTION&lt;/b&gt;&lt;/font&gt;" style="swimlane;fontStyle=0;childLayout=stackLayout;horizontal=1;startSize=110;horizontalStack=0;resizeParent=1;resizeParentMax=0;resizeLast=0;collapsible=1;marginBottom=0;whiteSpace=wrap;html=1;strokeWidth=2;" vertex="1" parent="SCEInfA-cX7gFjkzsH1g-4">
          <mxGeometry x="65" y="810" width="790" height="210" as="geometry" />
        </mxCell>
        <mxCell id="SCEInfA-cX7gFjkzsH1g-18" value="&lt;font style=&quot;font-size: 24px;&quot;&gt;Identification &amp;amp; Classification: Chentouf technique&lt;/font&gt;" style="text;strokeColor=none;fillColor=none;align=left;verticalAlign=middle;spacingLeft=4;spacingRight=4;overflow=hidden;points=[[0,0.5],[1,0.5]];portConstraint=eastwest;rotatable=0;whiteSpace=wrap;html=1;" vertex="1" parent="SCEInfA-cX7gFjkzsH1g-17">
          <mxGeometry y="110" width="790" height="50" as="geometry" />
        </mxCell>
        <mxCell id="SCEInfA-cX7gFjkzsH1g-19" value="&lt;font style=&quot;font-size: 24px;&quot;&gt;Resolution strategies based on Chentouf technique&lt;/font&gt;" style="text;strokeColor=none;fillColor=none;align=left;verticalAlign=middle;spacingLeft=4;spacingRight=4;overflow=hidden;points=[[0,0.5],[1,0.5]];portConstraint=eastwest;rotatable=0;whiteSpace=wrap;html=1;" vertex="1" parent="SCEInfA-cX7gFjkzsH1g-17">
          <mxGeometry y="160" width="790" height="50" as="geometry" />
        </mxCell>
      </root>
    </mxGraphModel>
  </diagram>
</mxfile>
